<svg xmlns="http://www.w3.org/2000/svg" width="138.968" height="39.953" viewBox="0 0 138.968 39.953">
    <defs>
        <style>
            .cls-1{fill:#fff}.cls-2{fill:#00d2e6}.cls-3{fill:#003d5b}
        </style>
    </defs>
    <g id="luminati_logo_2" transform="translate(0 .01)">
        <g id="Layer_1-2" transform="translate(-.001 -.016)">
            <path id="Path_1" d="M93.04 52.543V38H89v18.179h13.735l-1.616-3.636z" class="cls-1" data-name="Path 1" transform="translate(-53.046 -22.643)"/>
            <path id="Path_2" d="M132.08 60.272a3.115 3.115 0 0 1-2.02 1.212c-1.212 0-2.02-.727-2.02-2.424V53H124v6.464c0 3.313 2.1 5.454 5.009 5.454a4.76 4.76 0 0 0 3.07-1.01v.808h4.04V53h-4.04z" class="cls-1" data-name="Path 2" transform="translate(-73.907 -31.583)"/>
            <path id="Path_3" d="M174.907 52.692a5.73 5.73 0 0 0-4 1.7 5.341 5.341 0 0 0-3.757-1.7 4.9 4.9 0 0 0-3.111 1.293l-.4-1.212H160v11.715h4.04v-7.231a2.75 2.75 0 0 1 2.02-1.212c1.293 0 2.02.808 2.02 2.424v6.06h4.04v-7.272a2.825 2.825 0 0 1 2.02-1.212c1.293 0 2.02.808 2.02 2.424v6.06h4.04v-6.464a5.176 5.176 0 0 0-4.969-5.332h-.04a.687.687 0 0 0-.284-.041z" class="cls-1" data-name="Path 3" transform="translate(-95.364 -31.396)"/>
            <path id="Rectangle_2" d="M0 0h4.04v11.715H0z" class="cls-1" data-name="Rectangle 2" transform="translate(87.259 21.417)"/>
            <path id="Path_4" d="M239.433 52.7a6.059 6.059 0 0 0-3.393 1.293l-.4-1.212H232V64.5h4.04v-7.235a2.985 2.985 0 0 1 2.424-1.212c1.293 0 2.02.808 2.02 2.424v6.06h4.04v-6.868c-.001-3.353-2.142-4.969-5.091-4.969z" class="cls-1" data-name="Path 4" transform="translate(-138.277 -31.404)"/>
            <path id="Path_5" d="M275.871 53.689a5.549 5.549 0 0 0-3.07-.889h-.081a6.087 6.087 0 0 0 .081 12.16 5.592 5.592 0 0 0 3.07-1.131v.808h4.04V52.881h-4.04zm0 6.868a2.9 2.9 0 0 1-5.252-1.495v-.122c0-2.02 1.212-3.232 2.828-3.232a2.782 2.782 0 0 1 2.424 1.212z" class="cls-1" data-name="Path 5" transform="translate(-159.122 -31.464)"/>
            <path id="Path_6" d="M311.039 55.321h-.4a1.629 1.629 0 0 1-1.576-1.7v-3.349h4.04V47.04h-4.04V43h-4.04v4.04H303v3.232h2.02V53.5c0 3.232 2.1 5.454 4.928 5.454a10.6 10.6 0 0 0 3.555-.606l-.4-3.232a7.144 7.144 0 0 1-2.064.205z" class="cls-1" data-name="Path 6" transform="translate(-180.595 -25.623)"/>
            <path id="Rectangle_3" d="M0 0h4.04v11.715H0z" class="cls-1" data-name="Rectangle 3" transform="translate(134.928 21.417)"/>
            <circle id="Ellipse_1" cx="2.02" cy="2.02" r="2.02" class="cls-1" data-name="Ellipse 1" transform="translate(87.259 14.953)"/>
            <circle id="Ellipse_2" cx="2.02" cy="2.02" r="2.02" class="cls-1" data-name="Ellipse 2" transform="translate(134.928 14.953)"/>
            <path id="Path_7" d="M25.006 36.18c-.323-4.363-3.03-7.231-3.03-10.059a4.268 4.268 0 0 1 1.131-3.111 2.428 2.428 0 1 0-3.555-.2 2.835 2.835 0 0 1 .04 3.757 3.658 3.658 0 0 1-4.242.444 3.678 3.678 0 0 1-.606-5.413 3.228 3.228 0 1 0-4.565-.081l.081.081c1.737 1.656.929 4.646-1.131 5.615a2.825 2.825 0 0 1-3.151-.444c-.485-.525-.646-1.858-1.535-1.858-.566 0-1.01.525-1.212 2.02C2.828 30.161 0 32.585 0 36.988a12.523 12.523 0 0 0 25.047 0 5.414 5.414 0 0 0-.041-.808z" class="cls-2" data-name="Path 7" transform="translate(0 -9.552)"/>
            <circle id="Ellipse_3" cx="2.222" cy="2.222" r="2.222" class="cls-2" data-name="Ellipse 3" transform="translate(2.02 9.096)"/>
            <circle id="Ellipse_4" cx="2.02" cy="2.02" r="2.02" class="cls-2" data-name="Ellipse 4" transform="translate(10.504 .006)"/>
            <path id="Path_11" d="M24.775 67a8.08 8.08 0 0 1-16.159 0H7a9.7 9.7 0 1 0 19.391 0z" class="cls-3" data-name="Path 11" transform="translate(-4.172 -39.927)"/>
            <ellipse id="Ellipse_8" cx="1.818" cy="2.424" class="cls-3" data-name="Ellipse 8" rx="1.818" ry="2.424" transform="translate(6.06 22.225)"/>
            <ellipse id="Ellipse_9" cx="1.818" cy="2.424" class="cls-3" data-name="Ellipse 9" rx="1.818" ry="2.424" transform="translate(15.351 22.225)"/>
        </g>
    </g>
</svg>
